<svg width="24" height="24" viewBox="0 0 24 24" fill="none" xmlns="http://www.w3.org/2000/svg">
<mask id="mask0" mask-type="alpha" maskUnits="userSpaceOnUse" x="0" y="0" width="24" height="24">
<path d="M12 24C18.6274 24 24 18.6274 24 12C24 5.37258 18.6274 0 12 0C5.37258 0 0 5.37258 0 12C0 18.6274 5.37258 24 12 24Z" fill="#E68645"/>
</mask>
<g mask="url(#mask0)">
<path d="M12 24C18.6274 24 24 18.6274 24 12C24 5.37258 18.6274 0 12 0C5.37258 0 0 5.37258 0 12C0 18.6274 5.37258 24 12 24Z" fill="#E68645"/>
<path d="M17.1237 8.92479C17.249 10.2038 16.7104 10.9726 15.8643 11.4054C17.2677 11.7423 18.152 12.5786 17.9796 14.4531C17.7583 16.7897 16.0278 17.4145 13.5472 17.5487V20H12.0665V17.5869C11.6914 17.5869 11.2977 17.5869 10.8933 17.5772V20H9.41254V17.5487C9.0668 17.5487 8.72018 17.5389 8.36466 17.5389H6.44132L6.73906 15.7791C7.82516 15.7987 7.8065 15.7791 7.8065 15.7791C8.21979 15.7791 8.33533 15.4814 8.36377 15.2885V11.4232H8.51753C8.45976 11.4134 8.40199 11.4134 8.36377 11.4134V8.6537C8.306 8.34618 8.11402 7.99956 7.50787 7.99956C7.50787 7.99956 7.52742 7.98 6.44043 7.99956V6.42284L8.47843 6.43262C8.77617 6.43262 9.09347 6.43262 9.41077 6.42284V4H10.8915V6.37485C11.2861 6.36507 11.6798 6.35529 12.0647 6.35529V4H13.5454V6.42284C15.4492 6.58638 16.9584 7.17298 17.1219 8.92212L17.1237 8.92479ZM15.0564 14.1651C15.0564 12.2613 11.9225 12.5404 10.9226 12.5404V15.7898C11.9225 15.7898 15.0564 16.0013 15.0564 14.1651ZM14.3738 9.58871C14.3738 7.84846 11.7589 8.10799 10.9226 8.10799V11.0597C11.7589 11.0597 14.3738 11.2516 14.3738 9.58871Z" fill="white"/>
<g style="mix-blend-mode:overlay" opacity="0.3">
<rect x="0.423828" y="7.1311" width="26.8856" height="3.84933" transform="rotate(30.2485 0.423828 7.1311)" fill="white"/>
</g>
<g style="mix-blend-mode:overlay" opacity="0.3">
<rect x="2.81445" y="0.709473" width="28.7858" height="5.52278" transform="rotate(30.2485 2.81445 0.709473)" fill="white"/>
</g>
</g>
</svg>
