<!-- Generated by IcoMoon.io -->
<svg version="1.1" xmlns="http://www.w3.org/2000/svg" width="24" height="24" viewBox="0 0 24 24">
<title>usd</title>
<path fill="#71b247" d="M12 24c6.627 0 12-5.373 12-12s-5.373-12-12-12c-6.627 0-12 5.373-12 12s5.373 12 12 12z"></path>
<path fill="#fff" d="M15.858 7.4c-0.459 0.521-0.906 1.027-1.374 1.559-0.185-0.143-0.362-0.281-0.541-0.417-0.599-0.452-1.281-0.569-2.003-0.461-0.439 0.065-0.755 0.317-0.863 0.769-0.113 0.476-0.016 0.911 0.39 1.201 0.363 0.259 0.766 0.461 1.154 0.683 0.699 0.4 1.431 0.75 2.093 1.204 1.087 0.746 1.412 1.857 1.242 3.112-0.183 1.353-0.922 2.308-2.211 2.807-0.212 0.082-0.435 0.139-0.687 0.219 0 0.629 0 1.266 0 1.924-0.608 0-1.179 0-1.809 0 0-0.497-0.010-0.992 0.004-1.487 0.008-0.268-0.039-0.384-0.36-0.44-1.085-0.186-2.081-0.606-2.952-1.363 0.394-0.613 0.786-1.223 1.191-1.853 0.687 0.481 1.374 0.933 2.207 1.035 0.349 0.043 0.712 0.009 1.065-0.026 0.952-0.095 1.282-1.41 0.585-2.021-0.398-0.349-0.874-0.614-1.331-0.891-0.667-0.404-1.383-0.736-2.016-1.186-1.084-0.77-1.423-1.877-1.185-3.157 0.255-1.366 1.102-2.213 2.409-2.624 0.12-0.038 0.243-0.070 0.386-0.111 0-0.625 0-1.239 0-1.876 0.599 0 1.172 0 1.8 0 0 0.502 0.009 1.011-0.004 1.519-0.006 0.237 0.036 0.351 0.315 0.404 0.99 0.186 1.785 0.727 2.495 1.477z"></path>
</svg>
