<svg xmlns="http://www.w3.org/2000/svg" xmlns:xlink="http://www.w3.org/1999/xlink" viewBox="0 0 50 50"><defs><style>.a{fill:#fff;}.b,.c,.d,.e,.g{fill-rule:evenodd;}.b{opacity:0.1;fill:url(#a);}.c{fill:url(#b);}.d{fill:url(#c);}.e{fill:url(#d);}.f,.g{fill:#838383;}</style><radialGradient id="a" cx="10.81" cy="99.35" r="26.66" gradientTransform="translate(14.8 31.56) scale(0.94 0.1)" gradientUnits="userSpaceOnUse"><stop offset="0" stop-color="#231f20"/><stop offset="1" stop-color="#fff"/></radialGradient><linearGradient id="b" x1="39.47" y1="8.31" x2="39.47" y2="12.65" gradientUnits="userSpaceOnUse"><stop offset="0" stop-color="#ababab"/><stop offset="0.03" stop-color="#a8a8a8"/><stop offset="0.36" stop-color="#949494"/><stop offset="0.69" stop-color="#878787"/><stop offset="1" stop-color="#838383"/></linearGradient><linearGradient id="c" x1="28.97" y1="8.31" x2="28.97" y2="12.65" gradientUnits="userSpaceOnUse"><stop offset="0" stop-color="#ababab"/><stop offset="1" stop-color="#838383"/></linearGradient><linearGradient id="d" x1="25" y1="8.31" x2="25" y2="40.06" gradientUnits="userSpaceOnUse"><stop offset="0" stop-color="#cfcfcf"/><stop offset="0.09" stop-color="#cdcdcd"/><stop offset="0.12" stop-color="#c6c6c6"/><stop offset="0.14" stop-color="#bbb"/><stop offset="0.15" stop-color="#b5b5b5"/></linearGradient></defs><title>Browser</title><rect class="a" x="4" y="13.06" width="42" height="26"/><path class="b" d="M23.58,39C47.17,39,50,40.12,50,41.5S47.17,44,23.58,44,0,42.88,0,41.5,0,39,23.58,39Z"/><path class="c" d="M46.45,12.65l-2-3.92a1,1,0,0,0-.78-.42h-8.5a1,1,0,0,0-.77.42l-2,3.92Z"/><path class="d" d="M36,12.65,34,8.73a1,1,0,0,0-.78-.42h-8.5a1,1,0,0,0-.77.42L22,12.65Z"/><path class="e" d="M46.5,12.06H26a1.06,1.06,0,0,1-.78-.41L23.28,8.73a1.07,1.07,0,0,0-.78-.42H6a1.07,1.07,0,0,0-.78.42L3.28,11.65a1.87,1.87,0,0,0-.28.91v27a.5.5,0,0,0,.5.5h43a.5.5,0,0,0,.5-.5v-27A.51.51,0,0,0,46.5,12.06Zm-.5,27H4v-26H46Z"/><path class="f" d="M7.85,10.5,8.38,10A.25.25,0,0,0,8,9.62l-.53.53L7,9.62a.25.25,0,0,0-.35.35l.53.53L6.62,11a.24.24,0,0,0,0,.35.25.25,0,0,0,.17.08A.25.25,0,0,0,7,11.38l.53-.53.53.53a.25.25,0,0,0,.18.08.25.25,0,0,0,.17-.08.24.24,0,0,0,0-.35Z"/><path class="g" d="M20.5,10.8c0,.11-.13.2-.3.2H9.8c-.17,0-.3-.09-.3-.2v-.6c0-.11.13-.2.3-.2H20.2c.17,0,.3.09.3.2Z"/></svg>