<svg xmlns="http://www.w3.org/2000/svg" xmlns:xlink="http://www.w3.org/1999/xlink" viewBox="0 0 50 50"><defs><style>.a{fill:#fff;}.b,.c,.d{fill-rule:evenodd;}.b{opacity:0.3;fill:url(#a);}.c{fill:#333;}.d{fill:#50505a;}</style><radialGradient id="a" cx="7.21" cy="100.82" r="26.66" gradientTransform="translate(19.56 28.87) scale(0.75 0.16)" gradientUnits="userSpaceOnUse"><stop offset="0" stop-color="#231f20"/><stop offset="1" stop-color="#fff"/></radialGradient></defs><title>Cross-platform</title><rect class="a" x="11.27" y="9.09" width="27.45" height="31.82"/><path class="b" d="M23.87,41C42.74,41,45,42.79,45,45s-2.26,4-21.13,4S5,47.21,5,45,5,41,23.87,41Z"/><path class="c" d="M38.73,5H11.27A2.27,2.27,0,0,0,9,7.27V42.73A2.27,2.27,0,0,0,11.27,45H38.73A2.27,2.27,0,0,0,41,42.73V7.27A2.27,2.27,0,0,0,38.73,5Zm0,35.91H11.27V9.09H38.73Z"/><path class="d" d="M25,42a1,1,0,1,1-1,1A1,1,0,0,1,25,42Z"/><path class="d" d="M23.18,7a.24.24,0,1,1-.25.24A.24.24,0,0,1,23.18,7Z"/><path class="d" d="M24.39,7h2.43a.24.24,0,1,1,0,.48H24.39a.24.24,0,0,1,0-.48Z"/></svg>