<svg xmlns="http://www.w3.org/2000/svg" xmlns:xlink="http://www.w3.org/1999/xlink" viewBox="0 0 50 50"><defs><style>.a{fill:#fff;}.b,.c,.d,.e,.f{fill-rule:evenodd;}.b{opacity:0.5;fill:url(#a);}.c{fill:#1e1e28;}.d{fill:url(#b);}.e{fill:#432e3d;}.f{fill:#d6d6d6;}</style><radialGradient id="a" cx="25" cy="41.36" r="25.16" gradientTransform="translate(0 39.35) scale(1 0.04)" gradientUnits="userSpaceOnUse"><stop offset="0" stop-color="#231f20"/><stop offset="1" stop-color="#fff"/></radialGradient><linearGradient id="b" x1="25" y1="38" x2="25" y2="41" gradientUnits="userSpaceOnUse"><stop offset="0" stop-color="#b5b5b5"/><stop offset="0.26" stop-color="#b3b3b3"/><stop offset="0.36" stop-color="#acacac"/><stop offset="0.43" stop-color="#a1a1a1"/><stop offset="0.48" stop-color="#909090"/><stop offset="0.5" stop-color="#888"/></linearGradient></defs><title>Desktop</title><rect class="a" x="8" y="14" width="34" height="22"/><path class="b" d="M25,40c25,0,25,.45,25,1s0,1-25,1S0,41.55,0,41,0,40,25,40Z"/><path class="c" d="M42.64,12H7.43C6.32,12,6,12.79,6,13.9V38H44V13.9C44,12.79,43.76,12,42.64,12ZM42,36H8V14H42Z"/><path class="d" d="M49,38c0,1-1.33,3-3,3H4c-1.63,0-3-2-3-3Z"/><path class="e" d="M25,12.5a.5.5,0,1,1-.5.5A.5.5,0,0,1,25,12.5Z"/><path class="f" d="M30,38a1,1,0,0,1-1,1H21a1,1,0,0,1-1-1Z"/></svg>