<svg xmlns="http://www.w3.org/2000/svg" xmlns:xlink="http://www.w3.org/1999/xlink" viewBox="0 0 50 50"><defs><style>.a{fill:#fff;}.b,.c,.e,.f{fill-rule:evenodd;}.b{opacity:0.5;fill:url(#a);}.c{fill:#333;}.d{fill:#4c4c4c;}.e{fill:#666;}.f{fill:#50505a;}</style><radialGradient id="a" cx="-370" cy="47.14" r="30.18" gradientTransform="translate(247 43.23) scale(0.6 0.08)" gradientUnits="userSpaceOnUse"><stop offset="0" stop-color="#231f20"/><stop offset="0.8" stop-color="#fff"/></radialGradient></defs><title>Mobile</title><rect class="a" x="14" y="7" width="22" height="33"/><path class="b" d="M25,45c15,0,18,.9,18,2s-3,2-18,2S7,48.1,7,47,10,45,25,45Z"/><path class="c" d="M38,4.69A3.69,3.69,0,0,0,34.31,1H15.69A3.69,3.69,0,0,0,12,4.69V43.31A3.69,3.69,0,0,0,15.69,47H34.31A3.69,3.69,0,0,0,38,43.31ZM36,40H14V7H36Z"/><path class="d" d="M36,7V40H14V7H36m0-.5H14a.5.5,0,0,0-.5.5V40a.5.5,0,0,0,.5.5H36a.5.5,0,0,0,.5-.5V7a.5.5,0,0,0-.5-.5Z"/><path class="e" d="M21.5,3.5A.5.5,0,1,1,21,4,.5.5,0,0,1,21.5,3.5Z"/><path class="e" d="M23.91,3.5H28c.23,0,.41.28.41.5s-.18.5-.41.5H23.91c-.23,0-.41-.28-.41-.5S23.68,3.5,23.91,3.5Z"/><path class="f" d="M25,41.5a2.25,2.25,0,1,1-2.25,2.25A2.25,2.25,0,0,1,25,41.5Z"/></svg>