<svg xmlns="http://www.w3.org/2000/svg" xmlns:xlink="http://www.w3.org/1999/xlink" viewBox="0 0 50 50"><defs><style>.a{opacity:0.2;}.aa,.ab,.ac,.b,.c,.d,.e,.f,.g,.h,.i,.j,.k,.l,.m,.n,.o,.p,.q,.r,.s,.t,.u,.v,.w,.x,.y,.z{fill:none;stroke-miterlimit:10;stroke-width:0.5px;}.b{stroke:url(#a);}.c{stroke:url(#b);}.d{stroke:url(#c);}.e{stroke:url(#d);}.f{stroke:url(#e);}.g{stroke:url(#f);}.h{stroke:#145566;}.i{stroke:url(#g);}.j{stroke:url(#h);}.k{stroke:url(#i);}.l{stroke:url(#j);}.m{stroke:url(#k);}.n{stroke:url(#l);}.o{stroke:url(#m);}.p{stroke:url(#n);}.q{stroke:url(#o);}.r{stroke:url(#p);}.s{stroke:url(#q);}.t{stroke:url(#r);}.u{stroke:url(#s);}.v{stroke:url(#t);}.w{stroke:url(#u);}.x{stroke:url(#v);}.y{stroke:url(#w);}.z{stroke:url(#x);}.aa{stroke:#408499;}.aa,.ab,.ac{stroke-linecap:square;}.ab{stroke:#6db3cc;}.ac{stroke:#99e2ff;}</style><linearGradient id="a" x1="37" y1="32.29" x2="37" y2="41.68" gradientUnits="userSpaceOnUse"><stop offset="0" stop-color="#145566"/><stop offset="1" stop-color="#99e2ff"/></linearGradient><linearGradient id="b" x1="32.2" y1="32.34" x2="32.2" y2="41.63" xlink:href="#a"/><linearGradient id="c" x1="27.41" y1="32.42" x2="27.41" y2="41.55" xlink:href="#a"/><linearGradient id="d" x1="22.61" y1="32.42" x2="22.61" y2="41.55" xlink:href="#a"/><linearGradient id="e" x1="17.82" y1="32.34" x2="17.82" y2="41.63" xlink:href="#a"/><linearGradient id="f" x1="13.02" y1="32.29" x2="13.02" y2="41.68" xlink:href="#a"/><linearGradient id="g" x1="13" y1="17.71" x2="13" y2="8.32" xlink:href="#a"/><linearGradient id="h" x1="17.8" y1="17.66" x2="17.8" y2="8.37" xlink:href="#a"/><linearGradient id="i" x1="22.59" y1="17.58" x2="22.59" y2="8.45" xlink:href="#a"/><linearGradient id="j" x1="27.39" y1="17.58" x2="27.39" y2="8.45" xlink:href="#a"/><linearGradient id="k" x1="32.18" y1="17.66" x2="32.18" y2="8.37" xlink:href="#a"/><linearGradient id="l" x1="36.98" y1="17.71" x2="36.98" y2="8.32" xlink:href="#a"/><linearGradient id="m" x1="32.35" y1="36.98" x2="41.68" y2="36.98" xlink:href="#a"/><linearGradient id="n" x1="32.39" y1="32.19" x2="41.62" y2="32.19" xlink:href="#a"/><linearGradient id="o" x1="32.47" y1="27.4" x2="41.53" y2="27.4" xlink:href="#a"/><linearGradient id="p" x1="32.46" y1="22.6" x2="41.52" y2="22.6" xlink:href="#a"/><linearGradient id="q" x1="32.38" y1="17.81" x2="41.59" y2="17.81" xlink:href="#a"/><linearGradient id="r" x1="32.32" y1="13.02" x2="41.63" y2="13.02" xlink:href="#a"/><linearGradient id="s" x1="8.32" y1="36.98" x2="17.7" y2="36.98" gradientUnits="userSpaceOnUse"><stop offset="0" stop-color="#99e2ff"/><stop offset="1" stop-color="#145566"/></linearGradient><linearGradient id="t" x1="8.37" y1="32.19" x2="17.65" y2="32.19" xlink:href="#s"/><linearGradient id="u" x1="8.45" y1="27.4" x2="17.56" y2="27.4" xlink:href="#s"/><linearGradient id="v" x1="8.45" y1="22.6" x2="17.56" y2="22.6" xlink:href="#s"/><linearGradient id="w" x1="8.37" y1="17.81" x2="17.63" y2="17.81" xlink:href="#s"/><linearGradient id="x" x1="8.32" y1="13.02" x2="17.68" y2="13.02" xlink:href="#s"/></defs><title>VR</title><g class="a"><line class="b" x1="32.52" y1="32.47" x2="41.48" y2="41.5"/><line class="c" x1="29.52" y1="32.47" x2="34.89" y2="41.5"/><line class="d" x1="26.52" y1="32.47" x2="28.3" y2="41.5"/><line class="e" x1="23.52" y1="32.47" x2="21.7" y2="41.5"/><line class="f" x1="20.52" y1="32.47" x2="15.11" y2="41.5"/><line class="g" x1="17.52" y1="32.47" x2="8.52" y2="41.5"/><line class="h" x1="32.5" y1="17.53" x2="17.5" y2="17.53"/><line class="h" x1="32.5" y1="20.52" x2="17.5" y2="20.52"/><line class="h" x1="32.5" y1="23.51" x2="17.5" y2="23.51"/><line class="h" x1="32.5" y1="26.49" x2="17.5" y2="26.49"/><line class="h" x1="32.5" y1="29.48" x2="17.5" y2="29.48"/><line class="h" x1="32.5" y1="32.47" x2="17.5" y2="32.47"/><line class="i" x1="17.5" y1="17.53" x2="8.5" y2="8.5"/><line class="j" x1="20.5" y1="17.53" x2="15.09" y2="8.5"/><line class="k" x1="23.5" y1="17.53" x2="21.68" y2="8.5"/><line class="l" x1="26.5" y1="17.53" x2="28.27" y2="8.5"/><line class="m" x1="29.5" y1="17.53" x2="34.86" y2="8.5"/><line class="n" x1="32.5" y1="17.53" x2="41.45" y2="8.5"/><line class="h" x1="17.5" y1="32.47" x2="17.5" y2="17.53"/><line class="h" x1="20.5" y1="32.47" x2="20.5" y2="17.53"/><line class="h" x1="23.5" y1="32.47" x2="23.5" y2="17.53"/><line class="h" x1="26.5" y1="32.47" x2="26.5" y2="17.53"/><line class="h" x1="29.5" y1="32.47" x2="29.5" y2="17.53"/><line class="h" x1="32.5" y1="32.47" x2="32.5" y2="17.53"/><line class="o" x1="32.52" y1="32.47" x2="41.5" y2="41.5"/><line class="p" x1="32.52" y1="29.48" x2="41.49" y2="34.9"/><line class="q" x1="32.51" y1="26.49" x2="41.48" y2="28.3"/><line class="r" x1="32.51" y1="23.51" x2="41.47" y2="21.7"/><line class="s" x1="32.5" y1="20.52" x2="41.46" y2="15.1"/><line class="t" x1="32.5" y1="17.53" x2="41.45" y2="8.5"/><line class="u" x1="17.52" y1="32.47" x2="8.5" y2="41.5"/><line class="v" x1="17.52" y1="29.48" x2="8.5" y2="34.9"/><line class="w" x1="17.51" y1="26.49" x2="8.5" y2="28.3"/><line class="x" x1="17.51" y1="23.51" x2="8.5" y2="21.7"/><line class="y" x1="17.5" y1="20.52" x2="8.5" y2="15.1"/><line class="z" x1="17.5" y1="17.53" x2="8.5" y2="8.5"/><line class="h" x1="32.5" y1="17.53" x2="32.5" y2="32.47"/><line class="aa" x1="35.49" y1="14.52" x2="35.5" y2="35.48"/><line class="ab" x1="38.48" y1="11.51" x2="38.5" y2="38.49"/><line class="ac" x1="41.48" y1="8.5" x2="41.5" y2="41.5"/><line class="h" x1="17.5" y1="17.53" x2="32.5" y2="17.53"/><line class="aa" x1="14.5" y1="14.52" x2="35.48" y2="14.52"/><line class="ab" x1="11.5" y1="11.51" x2="38.47" y2="11.51"/><line class="ac" x1="8.5" y1="8.5" x2="41.45" y2="8.5"/><line class="h" x1="17.5" y1="32.47" x2="17.5" y2="17.53"/><line class="aa" x1="14.5" y1="35.48" x2="14.51" y2="14.52"/><line class="ab" x1="11.5" y1="38.49" x2="11.52" y2="11.51"/><line class="ac" x1="8.5" y1="41.5" x2="8.52" y2="8.5"/><line class="h" x1="32.5" y1="32.47" x2="17.5" y2="32.47"/><line class="aa" x1="35.5" y1="35.48" x2="14.5" y2="35.48"/><line class="ab" x1="38.5" y1="38.49" x2="11.5" y2="38.49"/><line class="ac" x1="41.5" y1="41.5" x2="8.5" y2="41.5"/></g></svg>