<svg xmlns="http://www.w3.org/2000/svg" xmlns:xlink="http://www.w3.org/1999/xlink" viewBox="0 0 50 50"><defs><style>.a{fill:#1b617f;}.b{fill:#3a91c1;fill-rule:evenodd;}.c{fill:#48b0f7;}</style><symbol id="a" viewBox="0 0 14 17.38"><ellipse class="a" cx="7" cy="12.38" rx="7" ry="2.5"/><path class="b" d="M0,14.88c0,1.38,3.08,2.5,7,2.5s7-1.12,7-2.5v-2.5c0,1.38-3.08,2.5-7,2.5s-7-1.12-7-2.5Z"/><ellipse class="a" cx="7" cy="7.38" rx="7" ry="2.5"/><path class="b" d="M0,9.88c0,1.38,3.08,2.5,7,2.5s7-1.12,7-2.5V7.38c0,1.38-3.08,2.5-7,2.5S0,8.76,0,7.38Z"/><ellipse class="c" cx="7" cy="2.5" rx="7" ry="2.5"/><path class="b" d="M0,5C0,6.38,3.08,7.5,7,7.5S14,6.38,14,5V2.5C14,3.88,10.92,5,7,5S0,3.88,0,2.5Z"/></symbol></defs><title>Database_1</title><use width="14" height="17.38" transform="translate(18 16.31)" xlink:href="#a"/></svg>