<svg xmlns="http://www.w3.org/2000/svg" xmlns:xlink="http://www.w3.org/1999/xlink" viewBox="0 0 50 50"><defs><style>.a{fill:#46be8a;}.b{fill:#3da374;}.c{fill:#338962;}.d{fill:#2b704f;}</style><symbol id="a" viewBox="0 0 19 16"><path class="a" d="M8.93,8H2a1,1,0,0,1-.89-.54,1,1,0,0,1,.07-1l3.5-5A.91.91,0,0,1,5.51,1a1,1,0,0,1,.82.44L9.64,6.3A1,1,0,0,1,8.93,8Zm-5-2H7L5.49,3.76Z"/><path class="b" d="M14.09,8a4,4,0,1,1,4-4A4,4,0,0,1,14.09,8Zm0-6a2,2,0,1,0,2,2A2,2,0,0,0,14.09,2Z"/><path class="c" d="M8,16H3a1,1,0,0,1-1-1V10A1,1,0,0,1,3,9H8a1,1,0,0,1,1,1v5A1,1,0,0,1,8,16ZM4,14H7V11H4Z"/><path class="d" d="M15.33,12.5l1.79-1.79a1,1,0,0,0,0-1.42,1,1,0,0,0-1.41,0l-1.8,1.8-1.79-1.8a1,1,0,0,0-1.41,0,1,1,0,0,0,0,1.42L12.5,12.5l-1.79,1.79a1,1,0,0,0,1.41,1.42l1.79-1.8,1.8,1.8a1,1,0,0,0,1.41-1.42Z"/></symbol></defs><title>Game</title><use width="19" height="16" transform="translate(15 17)" xlink:href="#a"/></svg>