<svg xmlns="http://www.w3.org/2000/svg" xmlns:xlink="http://www.w3.org/1999/xlink" viewBox="0 0 50 50"><defs><style>.a{fill:#d6904c;}.b{fill:#f2a654;}.c{fill:#a0683a;}</style><symbol id="a" viewBox="0 0 18 15.99"><path class="a" d="M.86,6l1,9.36a.73.73,0,0,0,.78.64H15.32a.73.73,0,0,0,.78-.64l1-9.36Zm2,9L2.23,9H3.61l.49,6Zm2.76,0L5.27,9H6.65l.21,6Zm4,0H8.38L8.31,9H9.69Zm2.77,0H11.14l.21-6h1.38Zm2.76,0H13.9l.49-6h1.38Z"/><rect class="b" y="4.99" width="18" height="2" rx="0.79" ry="0.79"/><path class="c" d="M8.27.57,5,6.18a.37.37,0,0,1-.51.14.38.38,0,0,1-.14-.52L7.62.19A.37.37,0,0,1,8.13.05.37.37,0,0,1,8.27.57Zm1.46,0L13,6.18a.37.37,0,0,0,.51.14.38.38,0,0,0,.14-.52L10.38.19A.37.37,0,0,0,9.87.05.37.37,0,0,0,9.73.57Z"/></symbol></defs><title>Magazine</title><use width="18" height="15.99" transform="translate(16 17.01)" xlink:href="#a"/></svg>