<svg xmlns="http://www.w3.org/2000/svg" xmlns:xlink="http://www.w3.org/1999/xlink" viewBox="0 0 50 50"><defs><style>.a{fill:#926dde;}.b{fill:#6c55aa;}.c{fill:#7d62c4;}</style><symbol id="a" viewBox="0 0 20 18.34"><path class="a" d="M13.33,11.83a2.67,2.67,0,1,0-2.66-2.66A2.67,2.67,0,0,0,13.33,11.83ZM6.92,7.91,8.5,7.67a7,7,0,0,1,.35-.86c-.29-.4-.6-.78-.9-1.18a.42.42,0,0,1-.08-.2C7.87,5.14,9.1,4,9.38,3.76a.32.32,0,0,1,.21-.08.31.31,0,0,1,.21.07L11,4.68a5.37,5.37,0,0,1,.78-.33l.24-1.59a.32.32,0,0,1,.31-.26H14.3a.32.32,0,0,1,.31.25,9.66,9.66,0,0,1,.24,1.6,5.31,5.31,0,0,1,.81.34l1.19-.94a.44.44,0,0,1,.22-.07c.3,0,1.47,1.26,1.68,1.54a.31.31,0,0,1,.07.21.44.44,0,0,1-.07.21c-.33.39-.65.78-.94,1.19a5,5,0,0,1,.34.79l1.61.25a.33.33,0,0,1,.24.32v1.92a.3.3,0,0,1-.25.31l-1.58.25a5.76,5.76,0,0,1-.37.85c.3.41.62.79.92,1.19a.35.35,0,0,1,.07.2c0,.3-1.23,1.41-1.5,1.66a.34.34,0,0,1-.22.09.29.29,0,0,1-.21-.08l-1.22-.92a5,5,0,0,1-.79.32l-.24,1.59a.31.31,0,0,1-.31.26H12.36a.33.33,0,0,1-.31-.25A10.78,10.78,0,0,1,11.81,14a4.61,4.61,0,0,1-.8-.32l-1.2.93a.39.39,0,0,1-.22.08c-.3,0-1.47-1.27-1.67-1.56a.24.24,0,0,1-.08-.19.3.3,0,0,1,.08-.21c.33-.4.64-.78.93-1.2a4.9,4.9,0,0,1-.33-.79l-1.61-.25a.32.32,0,0,1-.24-.31V8.22A.31.31,0,0,1,6.92,7.91Z"/><path class="b" d="M4,15.83A1.33,1.33,0,1,0,2.67,14.5,1.33,1.33,0,0,0,4,15.83ZM1.55,13.45a3.16,3.16,0,0,1,.31-.54,10.13,10.13,0,0,1-.53-1.44.09.09,0,0,1,0-.07c.13-.08,1.24-.73,1.3-.73l.06,0a9.69,9.69,0,0,1,1,1.16l.31,0,.31,0a7.17,7.17,0,0,1,1-1.18c.06,0,1.17.66,1.3.73a.09.09,0,0,1,0,.07,10.6,10.6,0,0,1-.53,1.44,3.16,3.16,0,0,1,.31.54c.21,0,1.55.16,1.55.32v1.46c0,.16-1.34.3-1.55.32a2.82,2.82,0,0,1-.31.54,10.6,10.6,0,0,1,.53,1.44.09.09,0,0,1,0,.07c-.13.08-1.24.74-1.3.74a7.26,7.26,0,0,1-1-1.19l-.31,0-.31,0a7.26,7.26,0,0,1-1,1.19c-.06,0-1.17-.66-1.3-.74a.08.08,0,0,1,0-.07,10.13,10.13,0,0,1,.53-1.44,2.82,2.82,0,0,1-.31-.54c-.21,0-1.55-.16-1.55-.32V13.77C0,13.61,1.34,13.47,1.55,13.45Z"/><path class="c" d="M4,5.17A1.34,1.34,0,1,0,2.67,3.83,1.34,1.34,0,0,0,4,5.17ZM1.55,2.78a3.6,3.6,0,0,1,.31-.54A10.13,10.13,0,0,1,1.33.8a.09.09,0,0,1,0-.07C1.5.66,2.61,0,2.67,0l.06,0a9.06,9.06,0,0,1,1,1.17l.31,0,.31,0A6.87,6.87,0,0,1,5.33,0c.06,0,1.17.67,1.3.73a.09.09,0,0,1,0,.07,10.6,10.6,0,0,1-.53,1.44,3.6,3.6,0,0,1,.31.54C6.66,2.8,8,3,8,3.1V4.56c0,.16-1.34.3-1.55.33a3.6,3.6,0,0,1-.31.54,11,11,0,0,1,.53,1.43.09.09,0,0,1,0,.08c-.13.07-1.24.74-1.3.74a7,7,0,0,1-1-1.2L4,6.5l-.31,0a7,7,0,0,1-1,1.2c-.06,0-1.17-.67-1.3-.74a.08.08,0,0,1,0-.08,10.49,10.49,0,0,1,.53-1.43,3.6,3.6,0,0,1-.31-.54C1.34,4.86,0,4.72,0,4.56V3.1C0,3,1.34,2.8,1.55,2.78Z"/></symbol></defs><title>Service</title><use width="20" height="18.34" transform="translate(15 15.83)" xlink:href="#a"/></svg>