<svg xmlns="http://www.w3.org/2000/svg" xmlns:xlink="http://www.w3.org/1999/xlink" viewBox="0 0 50 50"><defs><style>.a{fill:#4cc4ff;}.b{fill:#fff;}.c,.f{fill:#2e7599;}.c,.d,.e{fill-rule:evenodd;}.d{fill:#4dc1ff;}.e{fill:#3d9ccc;}</style><symbol id="a" viewBox="0 0 22 19"><rect class="a" x="4" y="15" width="14" height="4" rx="1" ry="1"/><rect class="b" x="9" y="16.5" width="4" height="1"/><path class="c" d="M11,4.05,7.48,6A4.29,4.29,0,0,1,7,4a3.82,3.82,0,0,1,4-4Z"/><path class="d" d="M11,4.05l3.52,2A4.29,4.29,0,0,0,15,4a3.82,3.82,0,0,0-4-4Z"/><path class="e" d="M11,4.05l3.52,2a4.36,4.36,0,0,1-1.58,1.46A3.85,3.85,0,0,1,7.48,6Z"/><rect class="f" x="2" y="10" width="18" height="0.5"/><rect class="f" y="11" width="22" height="0.5"/><rect class="f" x="5" y="12" width="12" height="0.5"/></symbol></defs><title>Site</title><use width="22" height="19" transform="translate(14 16)" xlink:href="#a"/></svg>